<?xml version="1.0" encoding="utf-8"?>
<!DOCTYPE svg PUBLIC "-//W3C//DTD SVG 20010904//EN" "http://www.w3.org/TR/2001/REC-SVG-20010904/DTD/svg10.dtd">
<svg xmlns="http://www.w3.org/2000/svg" xml:space="preserve" xmlns:xlink="http://www.w3.org/1999/xlink" width="209" height="39.714" viewBox="0 0 209 39.714">
<desc></desc>
<rect x="0" y="0" width="209" height="39.714" style="fill:#eeeeee;" />
<line fill="none" style="stroke:#000000; stroke-width:2;" x1="11" y1="0" x2="11" y2="30"/>
<line fill="none" style="stroke:#000000; stroke-width:1;" x1="13.5" y1="0" x2="13.5" y2="30"/>
<line fill="none" style="stroke:#000000; stroke-width:1;" x1="16.5" y1="0" x2="16.5" y2="30"/>
<line fill="none" style="stroke:#000000; stroke-width:4;" x1="23" y1="0" x2="23" y2="30"/>
<line fill="none" style="stroke:#000000; stroke-width:1;" x1="26.5" y1="0" x2="26.5" y2="30"/>
<line fill="none" style="stroke:#000000; stroke-width:3;" x1="29.5" y1="0" x2="29.5" y2="30"/>
<line fill="none" style="stroke:#000000; stroke-width:1;" x1="32.5" y1="0" x2="32.5" y2="30"/>
<line fill="none" style="stroke:#000000; stroke-width:3;" x1="36.5" y1="0" x2="36.5" y2="30"/>
<line fill="none" style="stroke:#000000; stroke-width:2;" x1="40" y1="0" x2="40" y2="30"/>
<line fill="none" style="stroke:#000000; stroke-width:1;" x1="43.5" y1="0" x2="43.5" y2="30"/>
<line fill="none" style="stroke:#000000; stroke-width:3;" x1="47.5" y1="0" x2="47.5" y2="30"/>
<line fill="none" style="stroke:#000000; stroke-width:2;" x1="51" y1="0" x2="51" y2="30"/>
<line fill="none" style="stroke:#000000; stroke-width:1;" x1="54.5" y1="0" x2="54.5" y2="30"/>
<line fill="none" style="stroke:#000000; stroke-width:3;" x1="58.5" y1="0" x2="58.5" y2="30"/>
<line fill="none" style="stroke:#000000; stroke-width:2;" x1="62" y1="0" x2="62" y2="30"/>
<line fill="none" style="stroke:#000000; stroke-width:2;" x1="66" y1="0" x2="66" y2="30"/>
<line fill="none" style="stroke:#000000; stroke-width:2;" x1="69" y1="0" x2="69" y2="30"/>
<line fill="none" style="stroke:#000000; stroke-width:2;" x1="73" y1="0" x2="73" y2="30"/>
<line fill="none" style="stroke:#000000; stroke-width:1;" x1="76.5" y1="0" x2="76.5" y2="30"/>
<line fill="none" style="stroke:#000000; stroke-width:3;" x1="80.5" y1="0" x2="80.5" y2="30"/>
<line fill="none" style="stroke:#000000; stroke-width:2;" x1="84" y1="0" x2="84" y2="30"/>
<line fill="none" style="stroke:#000000; stroke-width:1;" x1="87.5" y1="0" x2="87.5" y2="30"/>
<line fill="none" style="stroke:#000000; stroke-width:3;" x1="91.5" y1="0" x2="91.5" y2="30"/>
<line fill="none" style="stroke:#000000; stroke-width:2;" x1="95" y1="0" x2="95" y2="30"/>
<line fill="none" style="stroke:#000000; stroke-width:1;" x1="98.5" y1="0" x2="98.5" y2="30"/>
<line fill="none" style="stroke:#000000; stroke-width:3;" x1="102.5" y1="0" x2="102.5" y2="30"/>
<line fill="none" style="stroke:#000000; stroke-width:2;" x1="106" y1="0" x2="106" y2="30"/>
<line fill="none" style="stroke:#000000; stroke-width:2;" x1="110" y1="0" x2="110" y2="30"/>
<line fill="none" style="stroke:#000000; stroke-width:2;" x1="113" y1="0" x2="113" y2="30"/>
<line fill="none" style="stroke:#000000; stroke-width:2;" x1="117" y1="0" x2="117" y2="30"/>
<line fill="none" style="stroke:#000000; stroke-width:3;" x1="121.5" y1="0" x2="121.5" y2="30"/>
<line fill="none" style="stroke:#000000; stroke-width:2;" x1="125" y1="0" x2="125" y2="30"/>
<line fill="none" style="stroke:#000000; stroke-width:1;" x1="129.5" y1="0" x2="129.5" y2="30"/>
<line fill="none" style="stroke:#000000; stroke-width:1;" x1="131.5" y1="0" x2="131.5" y2="30"/>
<line fill="none" style="stroke:#000000; stroke-width:1;" x1="133.5" y1="0" x2="133.5" y2="30"/>
<line fill="none" style="stroke:#000000; stroke-width:2;" x1="138" y1="0" x2="138" y2="30"/>
<line fill="none" style="stroke:#000000; stroke-width:1;" x1="142.5" y1="0" x2="142.5" y2="30"/>
<line fill="none" style="stroke:#000000; stroke-width:3;" x1="146.5" y1="0" x2="146.5" y2="30"/>
<line fill="none" style="stroke:#000000; stroke-width:2;" x1="150" y1="0" x2="150" y2="30"/>
<line fill="none" style="stroke:#000000; stroke-width:1;" x1="153.5" y1="0" x2="153.5" y2="30"/>
<line fill="none" style="stroke:#000000; stroke-width:3;" x1="157.5" y1="0" x2="157.5" y2="30"/>
<line fill="none" style="stroke:#000000; stroke-width:2;" x1="161" y1="0" x2="161" y2="30"/>
<line fill="none" style="stroke:#000000; stroke-width:2;" x1="165" y1="0" x2="165" y2="30"/>
<line fill="none" style="stroke:#000000; stroke-width:1;" x1="168.5" y1="0" x2="168.5" y2="30"/>
<line fill="none" style="stroke:#000000; stroke-width:3;" x1="171.5" y1="0" x2="171.5" y2="30"/>
<line fill="none" style="stroke:#000000; stroke-width:3;" x1="176.5" y1="0" x2="176.5" y2="30"/>
<line fill="none" style="stroke:#000000; stroke-width:2;" x1="181" y1="0" x2="181" y2="30"/>
<line fill="none" style="stroke:#000000; stroke-width:1;" x1="184.5" y1="0" x2="184.5" y2="30"/>
<line fill="none" style="stroke:#000000; stroke-width:2;" x1="187" y1="0" x2="187" y2="30"/>
<line fill="none" style="stroke:#000000; stroke-width:3;" x1="192.5" y1="0" x2="192.5" y2="30"/>
<line fill="none" style="stroke:#000000; stroke-width:1;" x1="195.5" y1="0" x2="195.5" y2="30"/>
<line fill="none" style="stroke:#000000; stroke-width:2;" x1="198" y1="0" x2="198" y2="30"/>
<text x="104.5" y="37.763" text-anchor="middle" style="font-family: Tahoma; font-size: 9px; stroke: none; fill:#000000;">000 000 ZA003</text></svg>